<svg xmlns="http://www.w3.org/2000/svg" viewBox="0 0 512 512" role="img" aria-label="mi turno">
  <defs>

    <!-- ── Fondo squircle: blanco → azul hielo diagonal ── -->
    <linearGradient id="g-bg" x1="0" y1="0" x2="512" y2="512" gradientUnits="userSpaceOnUse">
      <stop offset="0%"   stop-color="#F2F7FF"/>
      <stop offset="55%"  stop-color="#E4EEFB"/>
      <stop offset="100%" stop-color="#D2E4F8"/>
    </linearGradient>

    <!-- ── Brillo de vidrio superior del fondo ── -->
    <linearGradient id="g-glass" x1="256" y1="6" x2="256" y2="300" gradientUnits="userSpaceOnUse">
      <stop offset="0%"   stop-color="rgba(255,255,255,0.55)"/>
      <stop offset="100%" stop-color="rgba(255,255,255,0)"/>
    </linearGradient>

    <!-- ── Letras: azul claro → azul vivo → azul profundo ── -->
    <linearGradient id="g-ltr" x1="256" y1="55" x2="256" y2="425" gradientUnits="userSpaceOnUse">
      <stop offset="0%"   stop-color="#B4D0FF"/>
      <stop offset="25%"  stop-color="#6FA0FA"/>
      <stop offset="65%"  stop-color="#4475EC"/>
      <stop offset="100%" stop-color="#2C52C8"/>
    </linearGradient>

    <!-- ── Brillo especular blanco en la parte superior ── -->
    <linearGradient id="g-hi" x1="256" y1="55" x2="256" y2="230" gradientUnits="userSpaceOnUse">
      <stop offset="0%"   stop-color="rgba(255,255,255,0.52)"/>
      <stop offset="70%"  stop-color="rgba(255,255,255,0.12)"/>
      <stop offset="100%" stop-color="rgba(255,255,255,0)"/>
    </linearGradient>

    <!-- ── Borde del squircle ── -->
    <linearGradient id="g-bd" x1="0" y1="0" x2="512" y2="512" gradientUnits="userSpaceOnUse">
      <stop offset="0%"   stop-color="#C6D9F5" stop-opacity="1"/>
      <stop offset="50%"  stop-color="#9BBDE6" stop-opacity="0.55"/>
      <stop offset="100%" stop-color="#C2D8F6" stop-opacity="0.85"/>
    </linearGradient>

  </defs>

  <!-- ════════════════════════════════════════════
       Fondo squircle helado (full-bleed, iOS redondea
       las esquinas; el favicon lo muestra como badge)
       ════════════════════════════════════════════ -->
  <rect x="6" y="6" width="500" height="500" rx="116" fill="url(#g-bg)"/>
  <rect x="6" y="6" width="500" height="500" rx="116" fill="url(#g-glass)"/>
  <rect x="7.5" y="7.5" width="497" height="497" rx="114.5" fill="none" stroke="url(#g-bd)" stroke-width="3"/>
  <circle cx="430" cy="94" r="19" fill="rgba(255,255,255,0.5)"/>

  <!-- ════════════════════════════════════════════
       Letras "mi" — escaladas a 0.70 para dejar aire
       alrededor; el trazo de 86 queda en ~60 efectivo
       (más fino, ya no se ve "gordo")
       ════════════════════════════════════════════ -->
  <g transform="translate(75.05,94.85) scale(0.70)">

    <!-- Letras base -->
    <path
      d="M 96,422 L 96,182
         C 96,93  196,93  196,182 L 196,422
         M 196,422 L 196,182
         C 196,93  296,93  296,182 L 296,422"
      fill="none" stroke="url(#g-ltr)" stroke-width="86"
      stroke-linecap="round" stroke-linejoin="round"/>

    <line x1="398" y1="182" x2="398" y2="422"
      stroke="url(#g-ltr)" stroke-width="86" stroke-linecap="round"/>

    <circle cx="418" cy="70" r="46" fill="url(#g-ltr)"/>

    <!-- ── Brillo especular encima de las letras (efecto vidrio) ── -->
    <path
      d="M 96,422 L 96,182
         C 96,93  196,93  196,182 L 196,422
         M 196,422 L 196,182
         C 196,93  296,93  296,182 L 296,422"
      fill="none" stroke="url(#g-hi)" stroke-width="86"
      stroke-linecap="round" stroke-linejoin="round"/>

    <line x1="398" y1="182" x2="398" y2="248"
      stroke="url(#g-hi)" stroke-width="86" stroke-linecap="round"/>

    <circle cx="418" cy="70" r="46" fill="url(#g-hi)"/>

    <!-- Destello en el vértice de cada arco del "m" -->
    <path d="M 113,180 C 113,106 196,106 196,180"
      fill="none" stroke="rgba(255,255,255,0.32)" stroke-width="22" stroke-linecap="round"/>
    <path d="M 196,180 C 196,106 279,106 279,180"
      fill="none" stroke="rgba(255,255,255,0.32)" stroke-width="22" stroke-linecap="round"/>

    <!-- Destello en el punto del "i" -->
    <circle cx="406" cy="57" r="16" fill="rgba(255,255,255,0.42)"/>

  </g>
</svg>
